# xmcd
#
# Track frame offsets:
#	150
#	15558
#	33951
#	52330
#	74214
#	94996
#	113470
#	130886
#	147006
#	163445
#	180155
#	197709
#	213667
#	231666
#	247731
#	267133
#	286039
#	303944
#
# Disc length: 4281
#
# Revision: 1
# Processed by: cddbd v1.5.1PL0 Copyright (c) Steve Scherf et al.
# Submitted via: EasyCDDAExtractor 8.0.2.1
# Normalized: r0:DSETVAR1
#
DISCID=0710b712
DTITLE=Various Artist - NuUrban Traxx 093
DYEAR=2005
DGENRE=Urban
TTITLE0=Mariah Carey Ft. Jermaine Dupri and Fat Man Scoop - It's Like That
TTITLE1=Cassidy - I'm A Hustla (Hustla's Anthem)
TTITLE2=T.I. - U Don't Know Me
TTITLE3=Eminem - Like Toy Soldiers
TTITLE4=Cam'ron Ft. Kanye West and Syleena Johnson - Down and Out
TTITLE5=Tango Ft. Bone Crusher and David Banner - Wobble And Shake It
TTITLE6=Jennifer Lopez Ft. Fabolous - Get Right
TTITLE7=Mase - Keep It On
TTITLE8=Kenny G Ft. Earth Wind and Fire - The Way You Move
TTITLE9=Baby Bash Ft. Aikon - Baby I'm Back
TTITLE10=Amenie - 1 Thing
TTITLE11=L.B. Ft. Wayne Marshall - Rise Up
TTITLE12=YoungbloodZ Ft. Young Buck - Datz Me
TTITLE13=Red Cafe - All Night Long
TTITLE14=Gerald Levert - So What (If You Got A Baby)
TTITLE15=Ja Rule Ft. Fat Joe and Judakiss - New York
TTITLE16=2 Pac - Ghetto Gospel
TTITLE17=S5 - Ooh That Ass
EXTD=
EXTT0=
EXTT1=
EXTT2=
EXTT3=
EXTT4=
EXTT5=
EXTT6=
EXTT7=
EXTT8=
EXTT9=
EXTT10=
EXTT11=
EXTT12=
EXTT13=
EXTT14=
EXTT15=
EXTT16=
EXTT17=
PLAYORDER=
